<svg height="512pt" viewBox="0 -24 512 512" width="512pt" xmlns="http://www.w3.org/2000/svg"><path d="m448 16v24h-272l-18-24zm0 0" fill="#e6e9ed"/><path d="m158 16 18 24h272v32h-306l-6-8h-72v-56h88zm0 0" fill="#f6bb42"/><path d="m464 72v24h-304l-18-24zm0 0" fill="#f5f7fa"/><path d="m142 72 18 24h304v32h-416v-64h88zm0 0" fill="#ffce54"/><path d="m208 280v16h96v-16c0-8.800781 7.199219-16 16-16s16 7.199219 16 16v32c0 8.878906-7.121094 16-16 16h-128c-8.878906 0-16-7.121094-16-16v-32c0-8.800781 7.199219-16 16-16s16 7.199219 16 16zm0 0" fill="#e6e9ed"/><path d="m304 280v16h-96v-16c0-8.800781-7.199219-16-16-16s-16 7.199219-16 16v32c0 8.878906 7.121094 16 16 16h128c8.878906 0 16-7.121094 16-16v-32c0-8.800781-7.199219-16-16-16s-16 7.199219-16 16zm200-120v264c0 17.601562-14.398438 32-32 32h-432c-17.601562 0-32-14.398438-32-32v-264c0-17.601562 14.398438-32 32-32h432c17.601562 0 32 14.398438 32 32zm0 0" fill="#656d78"/><path d="m472 128h-32c17.601562 0 32 14.398438 32 32v264c0 17.601562-14.398438 32-32 32h32c17.601562 0 32-14.398438 32-32v-264c0-17.601562-14.398438-32-32-32zm0 0" fill="#434a54"/><path d="m472 464h-432c-22.054688 0-40-17.945312-40-40v-264c0-22.054688 17.945312-40 40-40h432c22.054688 0 40 17.945312 40 40v264c0 22.054688-17.945312 40-40 40zm-432-328c-13.230469 0-24 10.769531-24 24v264c0 13.230469 10.769531 24 24 24h432c13.230469 0 24-10.769531 24-24v-264c0-13.230469-10.769531-24-24-24zm0 0"/><path d="m48 136c-4.425781 0-8-3.574219-8-8v-64c0-4.425781 3.574219-8 8-8s8 3.574219 8 8v64c0 4.425781-3.574219 8-8 8zm0 0"/><path d="m464 136c-4.425781 0-8-3.574219-8-8v-32c0-4.425781 3.574219-8 8-8s8 3.574219 8 8v32c0 4.425781-3.574219 8-8 8zm0 0"/><path d="m464 104h-304c-4.425781 0-8-3.574219-8-8s3.574219-8 8-8h304c4.425781 0 8 3.574219 8 8s-3.574219 8-8 8zm0 0"/><path d="m160.007812 104c-2.441406 0-4.832031-1.105469-6.40625-3.199219l-24-32c-2.65625-3.527343-1.9375-8.542969 1.597657-11.191406 3.527343-2.65625 8.542969-1.945313 11.191406 1.597656l24 32c2.65625 3.527344 1.9375 8.546875-1.597656 11.191407-1.433594 1.082031-3.113281 1.601562-4.785157 1.601562zm0 0"/><path d="m136 72h-88c-4.425781 0-8-3.574219-8-8s3.574219-8 8-8h88c4.425781 0 8 3.574219 8 8s-3.574219 8-8 8zm0 0"/><path d="m464 80h-322c-4.425781 0-8-3.574219-8-8s3.574219-8 8-8h322c4.425781 0 8 3.574219 8 8s-3.574219 8-8 8zm0 0"/><path d="m464 104c-4.425781 0-8-3.574219-8-8v-24c0-4.425781 3.574219-8 8-8s8 3.574219 8 8v24c0 4.425781-3.574219 8-8 8zm0 0"/><path d="m64 72c-4.425781 0-8-3.574219-8-8v-56c0-4.425781 3.574219-8 8-8s8 3.574219 8 8v56c0 4.425781-3.574219 8-8 8zm0 0"/><path d="m448 80c-4.425781 0-8-3.574219-8-8v-32c0-4.425781 3.574219-8 8-8s8 3.574219 8 8v32c0 4.425781-3.574219 8-8 8zm0 0"/><path d="m448 48h-272c-4.425781 0-8-3.574219-8-8s3.574219-8 8-8h272c4.425781 0 8 3.574219 8 8s-3.574219 8-8 8zm0 0"/><path d="m176.007812 48c-2.441406 0-4.832031-1.105469-6.40625-3.199219l-24-32c-2.65625-3.527343-1.9375-8.542969 1.597657-11.191406 3.519531-2.65625 8.542969-1.945313 11.191406 1.597656l24 32c2.65625 3.527344 1.9375 8.546875-1.597656 11.191407-1.433594 1.082031-3.113281 1.601562-4.785157 1.601562zm0 0"/><path d="m152 16h-88c-4.425781 0-8-3.574219-8-8s3.574219-8 8-8h88c4.425781 0 8 3.574219 8 8s-3.574219 8-8 8zm0 0"/><path d="m448 24h-290c-4.425781 0-8-3.574219-8-8s3.574219-8 8-8h290c4.425781 0 8 3.574219 8 8s-3.574219 8-8 8zm0 0"/><path d="m448 48c-4.425781 0-8-3.574219-8-8v-24c0-4.425781 3.574219-8 8-8s8 3.574219 8 8v24c0 4.425781-3.574219 8-8 8zm0 0"/><path d="m208 288c-4.425781 0-8-3.574219-8-8 0-4.414062-3.585938-8-8-8s-8 3.585938-8 8c0 4.425781-3.574219 8-8 8s-8-3.574219-8-8c0-13.230469 10.769531-24 24-24s24 10.769531 24 24c0 4.425781-3.574219 8-8 8zm0 0"/><path d="m336 288c-4.425781 0-8-3.574219-8-8 0-4.414062-3.585938-8-8-8s-8 3.585938-8 8c0 4.425781-3.574219 8-8 8s-8-3.574219-8-8c0-13.230469 10.769531-24 24-24s24 10.769531 24 24c0 4.425781-3.574219 8-8 8zm0 0"/><path d="m320 336c-4.425781 0-8-3.574219-8-8s3.574219-8 8-8c4.414062 0 8-3.585938 8-8 0-4.425781 3.574219-8 8-8s8 3.574219 8 8c0 13.230469-10.769531 24-24 24zm0 0"/><path d="m192 336c-13.230469 0-24-10.769531-24-24 0-4.425781 3.574219-8 8-8s8 3.574219 8 8c0 4.414062 3.585938 8 8 8 4.425781 0 8 3.574219 8 8s-3.574219 8-8 8zm0 0"/><path d="m176 320c-4.425781 0-8-3.574219-8-8v-32c0-4.425781 3.574219-8 8-8s8 3.574219 8 8v32c0 4.425781-3.574219 8-8 8zm0 0"/><path d="m336 320c-4.425781 0-8-3.574219-8-8v-32c0-4.425781 3.574219-8 8-8s8 3.574219 8 8v32c0 4.425781-3.574219 8-8 8zm0 0"/><path d="m320 336h-128c-4.425781 0-8-3.574219-8-8s3.574219-8 8-8h128c4.425781 0 8 3.574219 8 8s-3.574219 8-8 8zm0 0"/><path d="m304 304h-96c-4.425781 0-8-3.574219-8-8s3.574219-8 8-8h96c4.425781 0 8 3.574219 8 8s-3.574219 8-8 8zm0 0"/><path d="m304 304c-4.425781 0-8-3.574219-8-8v-16c0-4.425781 3.574219-8 8-8s8 3.574219 8 8v16c0 4.425781-3.574219 8-8 8zm0 0"/><path d="m208 304c-4.425781 0-8-3.574219-8-8v-16c0-4.425781 3.574219-8 8-8s8 3.574219 8 8v16c0 4.425781-3.574219 8-8 8zm0 0"/></svg>